<?xml version="1.0" standalone="no"?>
<!DOCTYPE svg PUBLIC "-//W3C//DTD SVG 20010904//EN"
 "http://www.w3.org/TR/2001/REC-SVG-20010904/DTD/svg10.dtd">
<svg version="1.0" xmlns="http://www.w3.org/2000/svg"
 width="260.000000pt" height="260.000000pt" viewBox="0 0 260.000000 260.000000"
 preserveAspectRatio="xMidYMid meet">
<metadata>
Created by potrace 1.14, written by Peter Selinger 2001-2017
</metadata>
<g transform="translate(0.000000,260.000000) scale(0.100000,-0.100000)"
fill="#000000" stroke="none">
<path d="M0 1300 l0 -1300 1300 0 1300 0 0 1300 0 1300 -1300 0 -1300 0 0
-1300z m960 205 c13 -69 27 -120 31 -113 4 7 16 56 28 108 33 144 25 131 89
128 l56 -3 30 -125 c16 -69 31 -120 32 -115 2 6 14 62 27 125 l23 115 47 3
c40 3 47 0 47 -15 0 -33 -88 -337 -99 -341 -5 -2 1 -19 15 -39 16 -24 24 -50
24 -79 l0 -44 -120 0 c-113 0 -120 -1 -120 -20 0 -28 35 -60 65 -60 14 0 34 9
45 20 15 15 33 20 70 20 30 0 50 -4 50 -11 0 -26 -38 -71 -75 -89 -85 -41
-191 -16 -236 57 -33 53 -34 152 -1 205 l23 37 -42 3 c-38 3 -44 6 -55 38 -11
30 -13 9 -13 -162 l-1 -198 -50 0 c-47 0 -50 2 -50 25 l0 24 -36 -24 c-47 -32
-115 -34 -162 -5 -68 42 -93 169 -51 256 22 47 82 84 133 84 32 0 96 -28 96
-41 0 -5 5 -9 10 -9 6 0 10 33 10 80 l0 80 40 0 c25 0 40 5 40 13 0 6 -11 52
-25 102 -14 49 -25 91 -25 92 0 2 24 3 53 3 l53 0 24 -125z m717 99 c39 -29
63 -65 73 -110 17 -72 14 -74 -121 -74 -122 0 -129 -3 -109 -40 16 -29 59 -34
92 -10 23 17 40 20 84 18 l56 -3 -27 -39 c-18 -27 -23 -41 -15 -46 8 -5 -6
-58 -48 -176 l-60 -169 -64 -3 -65 -3 -16 43 c-24 64 -107 300 -107 304 0 2
23 4 50 4 28 0 50 1 50 3 0 1 -11 24 -25 51 -50 98 -21 210 65 254 56 29 145
27 187 -4z m308 -308 c33 -14 75 -66 75 -93 0 -22 -84 -16 -105 7 -22 24 -73
27 -82 4 -8 -23 14 -38 85 -59 74 -22 102 -50 102 -105 0 -60 -56 -100 -140
-100 -63 0 -124 29 -145 70 -8 16 -15 31 -15 35 0 3 21 5 46 5 31 0 54 -7 71
-20 31 -24 56 -25 78 -4 24 24 4 40 -76 64 -46 14 -75 29 -88 47 -75 94 66
202 194 149z"/>
<path d="M1091 1454 c-5 -22 -15 -59 -21 -84 -6 -25 -13 -53 -16 -63 -5 -15
-2 -16 21 -7 14 5 37 10 51 10 13 0 24 3 24 6 0 10 -42 169 -45 173 -2 1 -8
-14 -14 -35z"/>
<path d="M1096 1209 c-46 -36 -35 -49 44 -49 54 0 70 3 70 14 0 18 -47 56 -70
56 -10 0 -29 -9 -44 -21z"/>
<path d="M667 1200 c-31 -24 -42 -66 -27 -105 35 -92 153 -64 153 36 0 75 -70
113 -126 69z"/>
<path d="M1560 1543 c-24 -9 -50 -35 -50 -50 0 -9 17 -13 65 -13 57 0 65 2 65
19 0 30 -47 56 -80 44z"/>
<path d="M1463 1283 c40 -139 70 -224 76 -217 8 9 61 182 61 197 0 4 -18 7
-40 7 -23 0 -55 7 -71 16 -29 15 -31 14 -26 -3z"/>
</g>
</svg>
